<?xml version="1.0" encoding="UTF-8"?>
<svg id="Layer_2" data-name="Layer 2" xmlns="http://www.w3.org/2000/svg" viewBox="0 0 63.29 52.49">
  <defs>
    <style>
      .cls-1 {
        fill: #231f20;
      }

      .cls-2 {
        fill: #e02927;
      }
    </style>
  </defs>
  <g id="Layer_1-2" data-name="Layer 1">
    <g>
      <path class="cls-2" d="M55.94,37.73c2.02,0,3.74.72,5.18,2.16,1.44,1.44,2.16,3.17,2.16,5.18s-.72,3.82-2.16,5.26c-1.44,1.44-3.17,2.16-5.18,2.16s-3.82-.72-5.26-2.16c-1.44-1.44-2.16-3.19-2.16-5.26s.72-3.74,2.16-5.18c1.44-1.44,3.19-2.16,5.26-2.16Z"/>
      <polygon class="cls-1" points="42.48 13.97 25.49 13.97 13.03 25.99 13.03 0 0 0 0 51.05 13.03 51.05 13.03 41.4 17.86 36.79 27.43 51.05 43.06 51.05 27.72 28.08 42.48 13.97"/>
    </g>
  </g>
</svg>