<svg width="69" height="70" viewBox="0 0 69 70" fill="none" xmlns="http://www.w3.org/2000/svg">
<path d="M68.4563 39.8858L59.7736 36.6806C52.7439 34.0859 47.2026 28.5398 44.6106 21.504L41.4082 12.8125C41.2878 12.4858 40.9764 12.2689 40.6285 12.2689C40.2807 12.2689 39.9693 12.4858 39.8489 12.8125L36.6465 21.5035C34.0541 28.5398 28.5127 34.0859 21.4835 36.6806L12.8003 39.8858C12.4738 40.0063 12.2571 40.3177 12.2571 40.6662C12.2571 41.0144 12.4738 41.3258 12.8003 41.4463L21.4839 44.6525C28.5131 47.2473 34.0541 52.7934 36.6465 59.829L39.8489 68.521C39.9693 68.8477 40.2807 69.0648 40.6285 69.0648C40.9764 69.0648 41.2878 68.8477 41.4082 68.521L44.6106 59.829C47.203 52.7934 52.7439 47.2468 59.7731 44.6525L68.4567 41.4463C68.7833 41.3258 69 41.0144 69 40.6662C69 40.3177 68.7828 40.0063 68.4563 39.8858Z" fill="#A02CC8"/>
<path d="M56.1992 27.6169L47.5165 24.4116C40.4869 21.817 34.9455 16.2709 32.3535 9.23509L29.1511 0.543535C29.0307 0.216893 28.7193 0 28.3715 0C28.0236 0 27.7122 0.216893 27.5918 0.543535L24.3894 9.23461C21.797 16.2709 16.2556 21.817 9.2264 24.4116L0.543265 27.6169C0.216696 27.7374 0 28.0488 0 28.3972C0 28.7454 0.216696 29.0568 0.543265 29.1774L9.22687 32.3835C16.2561 34.9784 21.797 40.5245 24.3894 47.5601L27.5918 56.2521C27.7122 56.5787 28.0236 56.7959 28.3715 56.7959C28.7193 56.7959 29.0307 56.5787 29.1511 56.2521L32.3535 47.5601C34.946 40.5245 40.4869 34.9779 47.5161 32.3835L56.1997 29.1774C56.5262 29.0568 56.7429 28.7454 56.7429 28.3972C56.7429 28.0488 56.5258 27.7374 56.1992 27.6169Z" fill="black"/>
</svg>
