<svg width="64" height="64" viewBox="0 0 64 64" fill="none" xmlns="http://www.w3.org/2000/svg">
<path d="M46.6667 8H41.3333C40.597 8 40 8.59695 40 9.33333V14.6667C40 15.403 40.597 16 41.3333 16H46.6667C47.403 16 48 15.403 48 14.6667V9.33333C48 8.59695 47.403 8 46.6667 8Z" fill="#406BDE"/>
<path d="M38.6667 16H33.3333C32.597 16 32 16.597 32 17.3333V22.6667C32 23.403 32.597 24 33.3333 24H38.6667C39.403 24 40 23.403 40 22.6667V17.3333C40 16.597 39.403 16 38.6667 16Z" fill="#406BDE"/>
<path d="M54.6667 16H49.3333C48.597 16 48 16.597 48 17.3333V22.6667C48 23.403 48.597 24 49.3333 24H54.6667C55.403 24 56 23.403 56 22.6667V17.3333C56 16.597 55.403 16 54.6667 16Z" fill="#406BDE"/>
<path d="M46.6667 48H41.3333C40.597 48 40 48.597 40 49.3333V54.6667C40 55.403 40.597 56 41.3333 56H46.6667C47.403 56 48 55.403 48 54.6667V49.3333C48 48.597 47.403 48 46.6667 48Z" fill="#406BDE"/>
<path d="M54.6667 40H49.3333C48.597 40 48 40.597 48 41.3333V46.6667C48 47.403 48.597 48 49.3333 48H54.6667C55.403 48 56 47.403 56 46.6667V41.3333C56 40.597 55.403 40 54.6667 40Z" fill="#406BDE"/>
<path d="M22.6667 8H17.3333C16.597 8 16 8.59695 16 9.33333V14.6667C16 15.403 16.597 16 17.3333 16H22.6667C23.403 16 24 15.403 24 14.6667V9.33333C24 8.59695 23.403 8 22.6667 8Z" fill="#406BDE"/>
<path d="M14.6667 16H9.33333C8.59695 16 8 16.597 8 17.3333V22.6667C8 23.403 8.59695 24 9.33333 24H14.6667C15.403 24 16 23.403 16 22.6667V17.3333C16 16.597 15.403 16 14.6667 16Z" fill="#406BDE"/>
<path d="M14.6667 40H9.33333C8.59695 40 8 40.597 8 41.3333V46.6667C8 47.403 8.59695 48 9.33333 48H14.6667C15.403 48 16 47.403 16 46.6667V41.3333C16 40.597 15.403 40 14.6667 40Z" fill="#406BDE"/>
<path d="M22.6667 48H17.3333C16.597 48 16 48.597 16 49.3333V54.6667C16 55.403 16.597 56 17.3333 56H22.6667C23.403 56 24 55.403 24 54.6667V49.3333C24 48.597 23.403 48 22.6667 48Z" fill="#406BDE"/>
<path d="M30.6667 24H25.3333C24.597 24 24 24.597 24 25.3333V30.6667C24 31.403 24.597 32 25.3333 32H30.6667C31.403 32 32 31.403 32 30.6667V25.3333C32 24.597 31.403 24 30.6667 24Z" fill="#406BDE"/>
<path d="M38.6667 32H33.3333C32.597 32 32 32.597 32 33.3333V38.6667C32 39.403 32.597 40 33.3333 40H38.6667C39.403 40 40 39.403 40 38.6667V33.3333C40 32.597 39.403 32 38.6667 32Z" fill="#406BDE"/>
<path d="M30.6667 40H25.3333C24.597 40 24 40.597 24 41.3333V46.6667C24 47.403 24.597 48 25.3333 48H30.6667C31.403 48 32 47.403 32 46.6667V41.3333C32 40.597 31.403 40 30.6667 40Z" fill="#406BDE"/>
</svg>
